<svg width="24" height="24" viewBox="0 0 24 24" fill="none" xmlns="http://www.w3.org/2000/svg">
<path d="M6.008 12.0001H5.99902" stroke="white" stroke-width="1.5" stroke-linecap="round" stroke-linejoin="round"/>
<path d="M11 16.0419C11.4635 16.1948 11.9076 16.3709 12.3099 16.6526M12.3099 16.6526C13.3507 17.3812 14 18.5765 14 19.8846C14 19.9485 13.9465 20.0004 13.8819 20.0001C10.9648 19.9872 9.65844 19.4933 9.1094 18.6783L8 16.8569C5.50848 16.3538 3.21828 14.7626 2 12.0834C5 5.48598 14.5 5.48598 17.5 12.0834M12.3099 16.6526C14.4801 15.9923 16.4151 14.4693 17.5 12.0834M17.5 12.0834C17.8333 11.4237 19.6 9.11456 22 9.11456C21.1667 9.93924 19.8 13.073 21 15.0523C19.8 15.0523 18 12.7432 17.5 12.0834ZM12.3099 7.51429C13.3507 6.78573 14 5.59033 14 4.28227C14 3.45569 9.69172 4.62415 9.1094 5.48855L8 7.30991" stroke="white" stroke-width="1.5" stroke-linecap="round" stroke-linejoin="round"/>
</svg>
