<svg width="24" height="24" viewBox="0 0 24 24" fill="none" xmlns="http://www.w3.org/2000/svg">
<path d="M9.5 15.7501C9.5 17.407 10.75 18.0001 12 18.0001C13.25 18.0001 14.5 17.407 14.5 15.7501C14.5 14.0932 12 12.0001 12 12.0001C12 12.0001 9.5 14.0932 9.5 15.7501Z" stroke="white" stroke-width="1.5" stroke-linecap="round" stroke-linejoin="round"/>
<path d="M9.06845 2.00009H14.9316C15.8529 2.00009 16.3135 2.00009 16.5997 2.29298C17.1334 2.83916 17.1334 5.16102 16.5997 5.7072C16.3135 6.00009 15.8529 6.00009 14.9316 6.00009H9.06845C8.14715 6.00009 7.6865 6.00009 7.40029 5.7072C6.86657 5.16102 6.86657 2.83916 7.40029 2.29298C7.6865 2.00009 8.14715 2.00009 9.06845 2.00009Z" stroke="white" stroke-width="1.5" stroke-linecap="round" stroke-linejoin="round"/>
<path d="M8 6.00009C8.16493 6.32995 8.24741 6.4949 8.30606 6.65579C8.61211 7.49524 8.52805 8.42741 8.07678 9.19857C7.99029 9.34637 7.87965 9.4939 7.65836 9.78894L7.25493 10.3269C6.80486 10.927 6.57983 11.227 6.41674 11.5557C6.252 11.8878 6.13421 12.2411 6.06677 12.6056C6 12.9665 6 13.3415 6 14.0916V16.0001C6 18.8285 6 20.2427 6.87868 21.1214C7.75736 22.0001 9.17157 22.0001 12 22.0001C14.8284 22.0001 16.2426 22.0001 17.1213 21.1214C18 20.2427 18 18.8285 18 16.0001V14.0916C18 13.3415 18 12.9665 17.9332 12.6056C17.8658 12.2411 17.748 11.8878 17.5833 11.5557C17.4202 11.227 17.1951 10.927 16.7451 10.3269L16.3416 9.78894C16.1204 9.4939 16.0097 9.34637 15.9232 9.19857C15.4719 8.42741 15.3879 7.49524 15.6939 6.65579C15.7526 6.4949 15.8351 6.32996 16 6.00009" stroke="white" stroke-width="1.5" stroke-linecap="round" stroke-linejoin="round"/>
</svg>
